<svg width="154" height="149" viewBox="0 0 154 149" fill="none" xmlns="http://www.w3.org/2000/svg">
<rect x="16" width="137.951" height="148.728" rx="68.9753" fill="#FFAA28"/>
<circle cx="84.9753" cy="68.9753" r="68.9753" fill="#FFE432"/>
<path d="M60.7742 4.38393C65.2328 2.71381 70.2007 4.97527 71.8715 9.43373C73.5423 13.8927 71.2828 18.8624 66.8238 20.5332C61.3821 22.5722 56.3219 25.5128 51.8576 29.233C48.1995 32.281 42.7624 31.7878 39.7141 28.13C36.6662 24.4719 37.1615 19.0347 40.8192 15.9865C46.7718 11.0261 53.5183 7.10265 60.7742 4.38393Z" fill="white"/>
<circle cx="84.9752" cy="68.9753" r="51.7314" fill="#FFC606"/>
<path opacity="0.25" d="M110.438 4.854C129.999 12.6286 145.162 29.094 151.157 49.4849L65.4854 135.157C45.0944 129.161 28.6282 114 20.8535 94.438L110.438 4.854Z" fill="white"/>
<circle cx="25.4038" cy="25.4038" r="25.4038" transform="matrix(-0.965926 0.258819 0.258819 0.965926 124.205 31.7019)" fill="white"/>
<circle cx="13.5487" cy="13.5487" r="13.5487" transform="matrix(-0.965926 0.258819 0.258819 0.965926 115.822 46.2214)" fill="#2E2E2E"/>
<circle cx="25.4038" cy="25.4038" r="25.4038" transform="matrix(-0.965926 0.258819 0.258819 0.965926 81.6719 43.0985)" fill="white"/>
<path d="M61.0019 66.4892C68.878 64.3788 76.1902 69.0396 78.0064 75.8179C78.5541 77.8621 77.1339 80.0188 74.8341 80.635C72.5344 81.2512 70.226 80.0936 69.6783 78.0494C68.7558 74.6066 65.4584 73.2294 62.9855 73.892C60.5127 74.5546 58.3456 77.396 59.2681 80.8388C59.8159 82.883 58.3956 85.0397 56.0958 85.6559C53.7961 86.2721 51.4877 85.1145 50.94 83.0703C49.1238 76.292 53.1259 68.5996 61.0019 66.4892Z" fill="#2E2E2E"/>
<path d="M29.226 71.3918L29.6489 68.5646C30.3829 63.5661 32.9649 59.0232 36.8855 55.8325L39.883 53.4086C40.2431 53.1085 40.5097 52.7116 40.6515 52.265C40.7932 51.8183 40.8041 51.3405 40.6828 50.888C40.5616 50.4355 40.3132 50.0271 39.9672 49.7112C39.6211 49.3953 39.1918 49.1849 38.7298 49.105L35.1316 48.5348C30.0137 47.705 25.4099 44.9452 22.2686 40.8239L20.4046 38.3985C20.1248 38.0196 19.7372 37.7339 19.2924 37.5785C18.8476 37.423 18.3662 37.4051 17.911 37.5271C17.4558 37.6491 17.0478 37.9053 16.7403 38.2623C16.4328 38.6193 16.24 39.0606 16.1871 39.5286L15.7868 42.5655C15.1248 47.7049 12.5157 52.3957 8.49688 55.6716L5.66913 57.9588C5.30764 58.2588 5.03975 58.656 4.89723 59.1033C4.75472 59.5507 4.74355 60.0295 4.86505 60.483C4.98654 60.9364 5.23561 61.3454 5.58272 61.6616C5.92984 61.9778 6.36044 62.1879 6.82348 62.2669L10.628 62.8729C15.6191 63.6737 20.1277 66.3149 23.2645 70.2754L25.0443 72.5123C25.3269 72.8785 25.7117 73.1529 26.1501 73.301C26.5885 73.449 27.0611 73.4641 27.5082 73.3443C27.9553 73.2245 28.357 72.9752 28.6627 72.6277C28.9683 72.2803 29.1643 71.8503 29.226 71.3918Z" fill="#3FD2FF"/>
</svg>
